<svg width="38" height="38" viewBox="0 0 38 38" fill="none" xmlns="http://www.w3.org/2000/svg">
<path d="M25.6613 27.831C23.8645 28.4155 23.5037 28.2563 22.8261 26.8717C22.2889 25.7762 21.6375 24.7329 21.1518 23.6169C20.8179 22.8487 20.6815 21.9948 20.4489 21.1539C20.4489 21.8674 20.4489 22.5834 20.4489 23.4781C17.1957 23.9426 14.0257 23.7132 10.8762 22.4503C11.2191 21.7891 11.5187 21.2119 11.8175 20.6356C11.8852 20.727 11.9522 20.8192 12.0199 20.9107C11.0411 21.7009 10.0517 22.4781 9.08593 23.283C7.28994 24.781 7.20585 25.3958 8.49244 27.2742C8.57571 27.3958 8.65571 27.5191 8.73816 27.6432C7.44749 28.4783 6.17642 28.0996 5.83845 26.7738C5.46863 25.3198 5.13311 23.8757 5.75599 22.3483C5.95927 21.8511 5.60986 21.1213 5.49231 20.5017C5.37883 19.9041 5.23924 19.3122 5.09964 18.6657C4.85473 19.6233 4.6237 20.5262 4.39349 21.4282C4.26205 21.3858 4.13143 21.3433 4 21.3009C4.72166 17.8681 5.20005 14.3463 8.6002 12.2009C10.6133 10.9307 12.8494 10.7666 15.0699 10.7723C18.6929 10.7813 22.3183 10.9707 25.8034 12.187C26.7593 12.5209 27.5194 12.8409 27.2483 14.0761C27.1953 14.3177 27.3643 14.6075 27.543 14.9031C26.9781 12.6744 28.6402 11.4874 29.6672 10C30.8861 10.9062 31.1938 12.0572 30.4689 13.6655C30.1546 14.3635 30.2991 14.7357 30.7465 15.2533C31.6445 16.2909 32.5645 17.224 34.0192 17.4297C34.2372 17.4607 34.6127 17.9489 34.5654 18.0354C34.2446 18.6249 33.9319 19.5041 33.4266 19.6543C31.7677 20.149 30.0289 20.38 28.3178 20.6952C28.0835 20.7384 27.8296 20.6658 27.5863 20.6756C24.5446 20.7899 23.102 23.3075 24.5462 25.9991C24.8662 26.5958 25.2499 27.1591 25.6613 27.831Z" fill="#E6D6C0"/>
<path d="M12.1195 23.4062C11.5252 25.1271 13.1253 25.799 13.7661 26.906C12.7285 27.6366 11.8697 27.5452 11.2444 26.666C10.8207 26.07 10.2852 25.5075 10.0451 24.8414C9.84758 24.2936 10.01 23.616 10.0133 22.9956C10.486 23.0479 10.9627 23.0813 11.4313 23.1589C11.6607 23.1972 11.8771 23.3164 12.1195 23.4062Z" fill="#E6D6C0"/>
<path d="M21.0897 27.0799C19.1345 27.7525 18.4438 26.8962 18.7418 24.1957C19.3696 24.0846 20.0251 23.9695 20.7558 23.8397C20.6521 24.4936 20.4611 25.0455 20.5125 25.5729C20.5598 26.0643 20.8668 26.5296 21.0897 27.0799Z" fill="#E6D6C0"/>
</svg>
