<svg width="38" height="38" viewBox="0 0 38 38" fill="none" xmlns="http://www.w3.org/2000/svg">
<path d="M22.3194 28.9511C21.0532 29.3176 20.4883 28.8988 20.3976 27.5437C20.3519 26.8595 20.4948 26.1558 20.3927 25.4848C20.2711 24.6839 20.0205 23.8929 19.7299 23.1337C19.6605 22.9524 19.1886 22.7875 18.9437 22.8341C16.7795 23.2463 14.7109 22.8186 12.6642 22.1867C11.8267 21.9279 11.154 22.0912 10.4666 22.6545C8.68204 24.1174 8.27141 25.4595 9.05838 27.6596C9.21431 28.0947 9.39472 28.52 9.56779 28.9609C8.41917 29.2164 7.7269 28.5633 7.3677 27.1493C7.07952 26.0138 6.63379 24.919 6.30969 23.7917C6.03376 22.8341 5.83947 21.8536 5.59456 20.887C5.40924 20.1539 5.11535 19.4355 5.02964 18.6927C4.9627 18.1114 5.00025 17.4387 5.23454 16.9154C6.34071 14.4451 8.4355 13.2867 10.9923 12.8393C13.8635 12.3365 16.6897 12.8418 19.4956 13.3553C20.9438 13.6206 22.1055 13.4745 23.0533 12.2287C23.4574 11.6973 24.0745 11.3274 24.6835 10.8091C23.9064 10.529 23.0671 10.2931 22.9447 9C23.5774 9.32573 23.9921 9.54043 24.508 9.80575C24.3978 9.569 24.3235 9.409 24.2174 9.18286C24.4109 9.18286 24.5595 9.14613 24.6803 9.18858C25.8224 9.59349 26.9571 9.84575 28.2078 9.86044C29.616 9.87677 31.8985 12.361 32.101 13.7439C32.2079 14.4737 31.4928 14.9627 30.603 14.7692C28.1923 14.2443 28.0625 14.2108 27.4535 16.5897C26.6526 19.7188 25.0174 22.1753 22.3839 24.0178C21.6214 24.5517 21.4083 26.7738 21.9112 27.9763C22.0475 28.2988 22.1814 28.6204 22.3194 28.9511Z" fill="#E6D6C0"/>
<path d="M12.2406 28.3674C10.7352 28.9266 10.4201 27.7314 10.1033 27.0097C9.18083 24.9101 9.45431 23.9345 11.1066 22.6292C10.0225 24.875 11.2348 26.5722 12.2406 28.3674Z" fill="#E6D6C0"/>
<path d="M24.2786 28.5854C23.5366 28.8826 23.0378 28.4679 22.832 27.5878C22.7177 27.0996 22.7071 26.5886 22.6035 26.0971C22.2385 24.3624 22.2312 24.364 23.579 23.5615C23.7945 25.1102 24.0247 26.7666 24.2786 28.5854Z" fill="#E6D6C0"/>
</svg>
