<svg width="38" height="38" viewBox="0 0 38 38" fill="none" xmlns="http://www.w3.org/2000/svg">
<path d="M11.0897 25.0393C11.6648 25.2076 12.3462 25.1889 12.4555 26.0292C12.3477 26.0429 12.265 26.063 12.1823 26.063C11.3247 26.0651 10.4664 26.0616 9.60884 26.0659C9.21635 26.068 8.87202 25.9401 8.70597 25.5835C8.24087 24.5822 7.48896 23.8065 6.77586 22.9935C6.38408 22.5464 5.98656 22.0906 5.67817 21.586C4.56899 19.7752 4.83784 17.4224 6.35677 15.7525C7.96555 13.9834 10.0179 12.9656 12.311 12.4034C14.2598 11.9254 16.2079 11.7996 18.1588 12.4286C19.3284 12.806 20.5001 13.1891 21.6934 13.4795C23.9513 14.0287 26.2193 14.5377 28.4945 15.0085C29.0789 15.1293 29.7072 15.0775 30.3117 15.0416C30.6575 15.0215 30.8509 15.1314 30.9939 15.4204C31.2994 16.0372 31.2563 16.7143 30.8775 17.4001C32.4733 19.203 33.0872 21.3136 32.9902 23.662C32.9808 23.8878 32.9046 24.1458 32.7702 24.3198C32.6523 24.4715 32.4172 24.5548 32.2181 24.6145C31.9672 24.69 31.6775 24.6605 31.4432 24.764C30.9184 24.9962 30.4044 25.1055 29.82 25.0221C28.5168 24.8359 27.2034 24.7223 25.8994 24.5426C25.4243 24.4772 24.9635 24.3097 24.4898 24.1868C24.2712 24.6591 24.3424 24.8309 24.8341 25.0386C25.1302 25.1637 25.4307 25.2938 25.6967 25.4707C25.8628 25.5814 25.967 25.7855 26.0985 25.9473C26.0741 25.9875 26.0497 26.0285 26.0259 26.0687C25.4983 26.0687 24.9628 26.0141 24.4437 26.081C23.5114 26.201 22.8285 25.8301 22.2822 25.1285C22.0809 24.8704 21.8358 24.7475 21.5144 24.754C20.595 24.7727 19.6756 24.7777 18.7569 24.8093C17.2524 24.8604 15.7572 24.8985 14.2691 24.5505C13.1715 24.2953 12.1054 24.5362 11.0897 25.0393Z" fill="#E6D6C0"/>
</svg>
