<svg width="56" height="56" viewBox="0 0 56 56" fill="none" xmlns="http://www.w3.org/2000/svg">
<circle cx="28" cy="28" r="28" fill="#2F2E2E"/>
<path d="M20.0897 34.0393C20.6648 34.2076 21.3462 34.1889 21.4555 35.0292C21.3477 35.0429 21.265 35.063 21.1823 35.063C20.3247 35.0651 19.4664 35.0616 18.6088 35.0659C18.2164 35.068 17.872 34.9401 17.706 34.5835C17.2409 33.5822 16.489 32.8065 15.7759 31.9935C15.3841 31.5464 14.9866 31.0906 14.6782 30.586C13.569 28.7752 13.8378 26.4224 15.3568 24.7525C16.9656 22.9834 19.0179 21.9656 21.311 21.4034C23.2598 20.9254 25.2079 20.7996 27.1588 21.4286C28.3284 21.806 29.5001 22.1891 30.6934 22.4795C32.9513 23.0287 35.2193 23.5377 37.4945 24.0085C38.0789 24.1293 38.7072 24.0775 39.3117 24.0416C39.6575 24.0215 39.8509 24.1314 39.9939 24.4204C40.2994 25.0372 40.2563 25.7143 39.8775 26.4001C41.4733 28.203 42.0872 30.3136 41.9902 32.662C41.9808 32.8878 41.9046 33.1458 41.7702 33.3198C41.6523 33.4715 41.4172 33.5548 41.2181 33.6145C40.9672 33.69 40.6775 33.6605 40.4432 33.764C39.9184 33.9962 39.4044 34.1055 38.82 34.0221C37.5168 33.8359 36.2034 33.7223 34.8994 33.5426C34.4243 33.4772 33.9635 33.3097 33.4898 33.1868C33.2712 33.6591 33.3424 33.8309 33.8341 34.0386C34.1302 34.1637 34.4307 34.2938 34.6967 34.4707C34.8628 34.5814 34.967 34.7855 35.0985 34.9473C35.0741 34.9875 35.0497 35.0285 35.0259 35.0687C34.4983 35.0687 33.9628 35.0141 33.4437 35.081C32.5114 35.201 31.8285 34.8301 31.2822 34.1285C31.0809 33.8704 30.8358 33.7475 30.5144 33.754C29.595 33.7727 28.6756 33.7777 27.7569 33.8093C26.2524 33.8604 24.7572 33.8985 23.2691 33.5505C22.1715 33.2953 21.1054 33.5362 20.0897 34.0393Z" fill="#E6D6C0"/>
</svg>
