<svg width="38" height="38" viewBox="0 0 38 38" fill="none" xmlns="http://www.w3.org/2000/svg">
<path d="M27.8157 10.7213C27.9242 10.9776 28.0328 11.2332 28.1798 11.5809C27.6875 11.6667 27.1022 11.7785 26.5136 11.8699C25.6858 11.9989 25.5062 12.4242 25.8384 13.1737C26.2172 14.03 26.5911 14.8945 26.8867 15.7819C27.5708 17.8392 27.1863 19.1013 25.4719 20.4385C23.8049 21.7389 22.3844 23.3186 20.319 24.148C17.6405 25.2232 15.198 24.877 12.7187 23.6631C11.7219 23.1749 10.6778 22.7112 9.60265 22.4834C8.8867 22.3316 8.03931 22.5006 7.32173 22.7406C6.51925 23.0092 5.82208 23.2027 5 22.4361C5.54451 22.0442 6.04494 21.6834 6.28332 21.5112C6.48333 20.9503 6.50047 20.5601 6.7013 20.4009C7.49072 19.7723 8.29483 19.1396 9.17161 18.6482C11.1227 17.5542 13.0999 16.4995 15.1066 15.5109C17.2895 14.4357 19.6153 14.3141 21.9893 14.6986C22.4065 14.7664 22.8359 14.7582 23.5085 14.8007C23.3126 14.1239 23.2081 13.5843 23.0032 13.0855C22.0211 10.6854 22.8024 8.86653 25.1576 8.13997C26.3487 7.77261 27.2491 8.1016 28.7773 9.44615C28.4475 9.88127 28.1218 10.3099 27.7961 10.7393L27.8157 10.7213Z" fill="#E6D6C0"/>
<path d="M17.0911 25.2257C17.4886 25.1792 17.8748 25.1334 18.367 25.0763C18.367 25.7759 18.3703 26.4453 18.3662 27.1139C18.3621 27.8266 18.7189 28.083 19.403 27.9719C20.0079 27.8731 20.6341 27.8609 21.2186 27.6968C22.4154 27.3597 23.3501 28.0772 24.382 28.3989C24.4775 28.4283 24.5224 28.6226 24.5828 28.7262C24.2457 29.0871 23.3607 28.554 23.4791 29.4936C23.0521 29.501 22.6211 29.5491 22.199 29.5075C21.1272 29.4022 20.0487 29.3099 18.994 29.1018C18.5638 29.0169 17.9531 28.732 17.834 28.3932C17.4805 27.3956 17.3327 26.3261 17.0911 25.2257Z" fill="#E6D6C0"/>
<path d="M15.5057 28.8903C13.8159 28.9703 13.3334 27.5906 12.6754 26.6012C12.4084 26.1996 12.7791 25.3342 12.9513 24.7048C12.9979 24.535 13.4126 24.3236 13.5938 24.3725C13.7767 24.4215 14.0126 24.7799 13.9963 24.9848C13.8901 26.2902 14.6273 26.7906 15.7588 26.9963C16.2127 27.0788 16.6829 27.1808 17.0862 27.389C17.2576 27.478 17.3785 28.0682 17.3499 28.0821C16.718 28.3939 16.0625 28.6576 15.5057 28.8903Z" fill="#E6D6C0"/>
<path d="M27.796 10.7402C28.601 9.81606 29.4328 9.82504 30.3896 10.5581C30.9194 10.9639 31.5709 11.2112 32.1995 11.5459C31.1358 12.0455 28.9765 11.6161 27.8205 10.7181C27.8156 10.7214 27.796 10.7402 27.796 10.7402Z" fill="#E6D6C0"/>
</svg>
