<svg width="38" height="38" viewBox="0 0 38 38" fill="none" xmlns="http://www.w3.org/2000/svg">
<path d="M14.9593 11.7119C14.6841 11.1887 14.4166 10.6793 14.1276 10.1304C14.5206 10.0001 14.9267 9.84068 15.3453 9.73049C16.7238 9.36664 18.1272 9.20793 19.5535 9.27723C22.35 9.41376 24.6945 10.4963 26.5727 12.5914C27.8722 14.0406 28.9069 15.638 29.4572 17.5197C29.8314 18.8011 29.9922 20.1061 29.7781 21.4347C29.5306 22.967 28.8799 24.3247 27.8479 25.4738C27.2152 26.1779 26.5027 26.8121 25.8062 27.4559C25.0764 28.1303 24.4499 28.867 24.1602 29.8414C24.1304 29.9405 24.102 30.0403 24.075 30.1401C24.0486 30.2378 24.0258 30.3369 23.9904 30.4811C23.612 29.9183 23.3909 29.3535 23.3882 28.72C23.3854 28.0644 23.6772 27.537 24.1602 27.1032C23.8712 26.9465 23.5829 26.8169 23.3223 26.6451C22.6424 26.1966 22.2197 25.5916 22.2668 24.7392C22.2793 24.5139 22.3389 24.2908 22.429 24.0627C22.4775 24.1681 22.5218 24.2755 22.5745 24.3788C22.9453 25.1072 23.4533 25.6928 24.2843 25.8875C25.6198 26.2001 26.8097 25.5348 27.2685 24.236C27.6213 23.2394 27.5298 22.2456 27.193 21.2705C26.4882 19.2287 25.1173 17.8461 23.0444 17.2016C22.097 16.907 21.1149 16.9008 20.1322 16.9618C18.8584 17.0408 17.5852 17.1295 16.3107 17.1912C15.8526 17.2133 15.3911 17.1725 14.9316 17.1551C14.838 17.1517 14.7451 17.1267 14.6329 17.1087C15.3696 15.5694 15.5525 13.9907 15.118 12.3204C18.3081 11.3037 21.3887 11.4201 24.1949 13.3413C26.9477 15.2257 28.5015 17.8745 28.7281 21.2573C28.7052 20.8151 28.7212 20.366 28.6519 19.9308C28.2353 17.3131 26.9414 15.1827 24.9496 13.473C23.7125 12.4105 22.2633 11.748 20.6659 11.4125C18.7655 11.0133 16.8915 11.136 15.039 11.6911C15.0043 11.7022 14.9697 11.7091 14.9593 11.7119Z" fill="#E6D6C0"/>
<path d="M28.8078 9.33551C27.6567 9.88995 26.9421 10.7244 26.8749 12.0647C25.1922 10.0611 23.0056 9.11027 20.5085 8.75612C20.9327 8.41584 23.0915 7.89259 24.714 8.01941C26.1749 8.13377 27.5291 8.55168 28.8078 9.33551Z" fill="#E6D6C0"/>
<path d="M18.3754 17.7109C19.2514 17.6458 20.1052 17.582 20.9895 17.5168C20.9757 18.0547 21.0602 18.5509 21.3347 18.9709C21.598 19.3742 21.9328 19.7311 22.2218 20.0908C20.9161 20.472 19.241 19.5295 18.3754 17.7109Z" fill="#E6D6C0"/>
<path d="M14.5933 12.8056C14.4069 11.9462 14.0458 11.1686 13.5274 10.443C13.4678 10.4666 13.4331 10.4783 13.3999 10.4936C11.8731 11.1859 10.5743 12.1964 9.39821 13.3739C8.88535 13.8874 8.85347 13.753 9.38574 14.331C10.6131 15.6651 12.1642 16.4469 13.885 16.9327C14.0215 16.9715 14.0645 16.905 14.1103 16.7969C14.6543 15.5126 14.8941 14.1931 14.5933 12.8056Z" fill="#E6D6C0"/>
</svg>
