<svg width="56" height="56" viewBox="0 0 56 56" fill="none" xmlns="http://www.w3.org/2000/svg">
<circle cx="28" cy="28" r="28" fill="#2F2E2E"/>
<path d="M26.6917 34.5708C25.863 34.1512 25.0642 33.6539 24.2011 33.3258C20.7172 31.9998 19.7011 29.2271 20.072 25.4099C20.2127 23.9626 21.0492 22.5775 21.6075 21.1795C21.8727 20.5162 22.2286 19.8892 22.4627 19.4119C21.9822 18.5204 21.5802 17.7734 21.0044 16.7054C21.5776 15.2945 22.6663 14.6084 24.111 15.2303C24.2232 15.6394 24.2063 16.0901 24.4184 16.2697C25.6685 17.3253 26.0115 18.8018 26.4103 20.2653C26.5549 20.7957 26.6541 21.3546 26.896 21.839C27.8096 23.6714 28.233 24.7206 30.64 23.851C30.7684 23.805 30.9123 23.7655 31.0452 23.7758C32.9283 23.9172 34.1038 22.7429 35.2717 21.5349C35.4727 21.3267 35.7515 21.1938 36.0634 20.9785C37.2578 23.0645 37.0639 25.1427 36.3117 27.1139C36.0024 27.9244 35.118 28.6468 34.3217 29.1123C32.4763 30.1913 30.5369 31.0745 28.2875 30.9785C26.6781 30.9104 25.3553 30.3106 24.2212 29.2103C24.0909 29.0838 23.9398 28.9788 23.6111 28.7116C25.3579 31.5206 29.6369 32.6521 35.4117 29.0812C34.644 30.1939 33.9631 31.3825 33.0806 32.3953C32.3914 33.187 31.4194 33.7252 30.6309 34.4398C29.3211 35.6264 28.0119 35.3605 26.6684 34.55L26.6917 34.5708Z" fill="#E6D6C0"/>
<path d="M29.161 35.7522C28.9755 37.4854 28.9755 37.4854 29.9008 39.3445C28.6947 39.5591 27.4563 39.7795 26.2171 40C26.1854 39.9533 26.1529 39.9066 26.1212 39.8593C26.4428 39.6084 26.765 39.3574 27.1852 39.03C26.6088 38.8919 26.1069 38.7712 25.605 38.6513C25.6031 38.5839 25.6011 38.5158 25.5992 38.4483C26.3857 38.4483 27.1729 38.4483 28.047 38.4483C28.1177 37.689 28.2214 37.0458 28.2253 36.4026C28.2285 35.734 28.4911 35.5512 29.161 35.7522Z" fill="#E6D6C0"/>
<path d="M26.6677 34.5494C26.7209 34.9482 26.9167 35.3975 26.7981 35.736C26.5342 36.4895 26.1756 37.1826 26.9051 37.6534C26.0271 37.9089 25.12 38.1734 24.148 38.4561C24.2614 38.1916 24.3801 37.9134 24.5234 37.5782C24.1655 37.5996 23.8419 37.6184 23.3679 37.6462C24.015 37.086 24.3282 36.256 25.3514 36.6606C25.4811 36.7119 25.8903 36.2366 26.068 35.9435C26.3267 35.5181 26.4933 35.0363 26.695 34.5747C26.6917 34.5708 26.6677 34.5494 26.6677 34.5494Z" fill="#E6D6C0"/>
</svg>
