<svg width="38" height="38" viewBox="0 0 38 38" fill="none" xmlns="http://www.w3.org/2000/svg">
<path d="M17.6917 25.5708C16.863 25.1512 16.0642 24.6539 15.2011 24.3258C11.7172 22.9998 10.7011 20.2271 11.072 16.4099C11.2127 14.9626 12.0492 13.5775 12.6075 12.1795C12.8727 11.5162 13.2286 10.8892 13.4627 10.4119C12.9822 9.52037 12.5802 8.77339 12.0044 7.70543C12.5776 6.29447 13.6663 5.60844 15.111 6.23027C15.2232 6.63943 15.2063 7.09008 15.4184 7.26969C16.6685 8.32533 17.0115 9.80178 17.4103 11.2653C17.5549 11.7957 17.6541 12.3546 17.896 12.839C18.8096 14.6714 19.233 15.7206 21.64 14.851C21.7684 14.805 21.9123 14.7655 22.0452 14.7758C23.9283 14.9172 25.1038 13.7429 26.2717 12.5349C26.4727 12.3267 26.7515 12.1938 27.0634 11.9785C28.2578 14.0645 28.0639 16.1427 27.3117 18.1139C27.0024 18.9244 26.118 19.6468 25.3217 20.1123C23.4763 21.1913 21.5369 22.0745 19.2875 21.9785C17.6781 21.9104 16.3553 21.3106 15.2212 20.2103C15.0909 20.0838 14.9398 19.9788 14.6111 19.7116C16.3579 22.5206 20.6369 23.6521 26.4117 20.0812C25.644 21.1939 24.9631 22.3825 24.0806 23.3953C23.3914 24.187 22.4194 24.7252 21.6309 25.4398C20.3211 26.6264 19.0119 26.3605 17.6684 25.55L17.6917 25.5708Z" fill="#E6D6C0"/>
<path d="M20.161 26.7523C19.9755 28.4855 19.9755 28.4855 20.9008 30.3445C19.6947 30.5591 18.4563 30.7796 17.2171 31.0001C17.1854 30.9534 17.1529 30.9067 17.1212 30.8594C17.4428 30.6084 17.765 30.3575 18.1852 30.03C17.6088 29.8919 17.1069 29.7713 16.605 29.6514C16.6031 29.5839 16.6011 29.5158 16.5992 29.4484C17.3857 29.4484 18.1729 29.4484 19.047 29.4484C19.1177 28.6891 19.2214 28.0459 19.2253 27.4026C19.2285 26.7341 19.4911 26.5512 20.161 26.7523Z" fill="#E6D6C0"/>
<path d="M17.6677 25.5493C17.7209 25.9481 17.9167 26.3975 17.7981 26.7359C17.5342 27.4894 17.1756 28.1826 17.9051 28.6533C17.0271 28.9088 16.12 29.1733 15.148 29.4561C15.2614 29.1915 15.3801 28.9133 15.5234 28.5781C15.1655 28.5995 14.8419 28.6183 14.3679 28.6462C15.015 28.0859 15.3282 27.256 16.3514 27.6606C16.4811 27.7118 16.8903 27.2365 17.068 26.9434C17.3267 26.5181 17.4933 26.0363 17.695 25.5746C17.6917 25.5707 17.6677 25.5493 17.6677 25.5493Z" fill="#E6D6C0"/>
</svg>
