<svg width="38" height="38" viewBox="0 0 38 38" fill="none" xmlns="http://www.w3.org/2000/svg">
<path d="M6.91516 17.4913C6.65168 16.5499 6.38742 15.6085 6.12395 14.667C6.09013 14.671 6.0571 14.6749 6.02328 14.6788C6.02328 16.6797 5.82902 18.7056 6.07676 20.6758C6.33394 22.7246 6.02485 24.6593 5.71576 26.9008C4.98276 25.3979 4.95051 24.0789 5.02995 22.7159C5.17152 20.2873 5.39409 17.8484 5.30365 15.4244C5.11096 10.2549 7.1684 10.6166 10.4992 10.8109C12.5071 10.9281 14.4929 11.4204 16.5008 11.5329C18.5064 11.6454 20.53 11.5581 22.5387 11.4393C24.1125 11.3465 25.676 11.072 27.234 10.8793C27.4731 9.46758 27.5966 9.31579 28.0937 9.52342C28.634 8.98389 29.1271 8.49234 29.621 8C29.6989 8.03854 29.7775 8.07708 29.8554 8.11561C29.7901 8.41133 29.724 8.70705 29.6399 9.08692C31.7296 8.60874 31.3851 10.6623 32.1739 11.5675C32.6112 12.0693 32.8944 12.7228 33.1673 13.3434C33.3301 13.7146 33.5346 14.288 33.3686 14.5286C33.1484 14.8487 32.5876 15.0862 32.1708 15.0894C31.2773 15.0965 30.3823 14.9305 29.4079 14.8275C28.7173 16.1504 27.5368 17.2035 27.2954 18.8913C27.1617 19.8225 26.4656 20.7135 25.8954 21.5346C24.5844 23.423 24.5663 26.7475 25.9332 28.6185C25.9898 28.6964 25.9992 28.8088 26.0299 28.904C24.781 29.4475 23.466 28.4974 23.3779 27.0408C23.252 24.9606 23.1018 22.8819 22.9374 20.804C22.906 20.4076 22.7652 20.0207 22.519 19.6589C22.6032 20.3643 22.6873 21.069 22.7471 21.5669C21.3275 21.8327 20.0086 22.0215 18.7195 22.3329C16.3239 22.9118 14.301 22.4831 12.8012 20.3864C12.7281 20.2841 12.5818 20.2346 12.4693 20.1606L12.5079 20.1992C12.1005 19.4418 11.3517 19.4733 10.964 19.9452C9.33439 21.9326 7.50423 23.8933 7.70243 26.7317C7.7622 27.589 8.22859 28.4172 8.54397 29.3633C7.10234 29.965 7.08897 28.2166 6.18766 27.8989C6.86482 26.2001 6.95212 24.5461 6.50933 22.8363C6.41574 22.4753 6.64067 21.9688 6.84909 21.6031C7.63243 20.2306 7.72602 18.8747 6.91358 17.4897L6.91516 17.4913Z" fill="#E6D6C0"/>
<path d="M23.0484 28.801C21.5265 28.9772 20.6535 28.2442 20.8423 27.1108C21.1144 25.4797 21.418 23.854 21.7192 22.167C22.8187 21.9814 23.3921 22.7616 23.0484 24.2716C22.9642 24.6421 22.8227 25.0062 22.663 25.3522C22.1251 26.5218 21.8844 27.6622 23.0484 28.801Z" fill="#E6D6C0"/>
<path d="M12.4685 20.1599C12.7501 20.6302 13.0317 21.1005 13.3156 21.574C12.7383 22.0915 12.1807 22.6845 11.5295 23.1454C11.0497 23.4852 10.5196 23.4537 10.3741 22.7388C9.89359 22.9032 9.45945 23.051 8.95453 23.2233C9.63405 22.2189 10.2239 21.176 11.0018 20.2999C11.2393 20.0317 11.9912 20.2197 12.5071 20.1984L12.4685 20.1599Z" fill="#E6D6C0"/>
<path d="M12.9224 28.9803C11.8512 28.9205 11.3651 28.7412 10.736 28.0821C9.66791 26.963 9.82127 25.5064 9.14411 24.3298C9.02456 24.1222 9.23848 23.7218 9.29904 23.4104C9.71588 23.4985 10.1909 23.3192 10.3923 23.9955C10.7163 25.084 11.1496 26.1482 11.6341 27.1761C11.9039 27.7479 12.3718 28.2245 12.9224 28.9803Z" fill="#E6D6C0"/>
<path d="M6.91363 17.4896C6.98992 18.5545 7.067 19.6194 7.14329 20.6843C6.99464 20.6883 6.846 20.693 6.69735 20.6969C6.4614 19.6241 6.51174 18.5561 6.91678 17.4928C6.91521 17.4912 6.91363 17.4896 6.91363 17.4896Z" fill="#E6D6C0"/>
</svg>
